<svg width="19" height="12" viewBox="0 0 19 12" fill="none" xmlns="http://www.w3.org/2000/svg">
<path fill-rule="evenodd" clip-rule="evenodd" d="M3.82837 10.1924L3.81689 10.1807L0.292969 6.65677C-0.0976562 6.26627 -0.0976562 5.63309 0.292969 5.24258C0.683472 4.85208 1.31665 4.85208 1.70715 5.24258L4.53552 8.07095L12.3136 0.292877C12.7041 -0.0976257 13.3373 -0.0976257 13.7278 0.292877C14.1183 0.68338 14.1183 1.31656 13.7278 1.70706L5.24927 10.1857L5.24255 10.1924C4.90088 10.5341 4.37341 10.5768 3.98523 10.3206C3.92981 10.284 3.8772 10.2412 3.82837 10.1924ZM8.34863 11.1924L8.33716 11.1807L7.29309 10.137C6.90247 9.74649 6.90247 9.11331 7.29309 8.72281C7.68359 8.33224 8.31677 8.33224 8.70728 8.72281L9.05579 9.07095L16.8339 1.29288C17.2244 0.902374 17.8575 0.902374 18.248 1.29288C18.6385 1.68338 18.6385 2.31656 18.248 2.70706L9.76953 11.1857L9.76282 11.1924C9.42114 11.5341 8.89368 11.5768 8.50549 11.3206C8.45007 11.284 8.39746 11.2412 8.34863 11.1924Z" fill="#8D93A1"/>
</svg>
